/* XPM */
static char *xv[] = {
/* columns rows colors chars-per-pixel */
"32 32 151 2 ",
"   c #010103",
".  c #090506",
"X  c #030008",
"o  c #0C0308",
"O  c #0F0B0B",
"+  c #170108",
"@  c #1E010B",
"#  c #120D08",
"$  c #1C110A",
"%  c #23010C",
"&  c #32000D",
"*  c #3C020D",
"=  c #34170F",
"-  c #310010",
";  c #3E0314",
":  c #2D2E0F",
">  c #342F0C",
",  c #34330F",
"<  c #2F2A10",
"1  c #372D11",
"2  c #42020F",
"3  c #4B0410",
"4  c #67030F",
"5  c #6A030D",
"6  c #6A0B0F",
"7  c #72050B",
"8  c #7C010D",
"9  c #6D1C0E",
"0  c #6C0210",
"q  c #412710",
"w  c #4A3D11",
"e  c #722510",
"r  c #763911",
"t  c #6F4511",
"y  c #5E600F",
"u  c #776C0D",
"i  c #786F0D",
"p  c #73750C",
"a  c #686A1D",
"s  c #6F7011",
"d  c #8E020D",
"f  c #96030E",
"g  c #9B040E",
"h  c #8C0710",
"j  c #9D1D15",
"k  c #AA040D",
"l  c #AA0A0A",
"z  c #B3050A",
"x  c #BD020C",
"c  c #BC090B",
"v  c #AC0214",
"b  c #A50E12",
"n  c #AF0019",
"m  c #B70013",
"M  c #BB0C12",
"N  c #CA0407",
"B  c #C10A07",
"V  c #CB0805",
"C  c #C2030A",
"Z  c #CB040B",
"A  c #C6090A",
"S  c #CC0A09",
"D  c #D50506",
"F  c #DD0405",
"G  c #D00806",
"H  c #DB0A05",
"J  c #D10509",
"K  c #DF0408",
"L  c #C20112",
"P  c #E40403",
"I  c #ED0601",
"U  c #E60A04",
"Y  c #EE0B00",
"T  c #F10600",
"R  c #F10A00",
"E  c #E11405",
"W  c #EF1700",
"Q  c #EA1801",
"!  c #DD2605",
"~  c #CC3A0F",
"^  c #EA2C02",
"/  c #984F0E",
"(  c #B04F0B",
")  c #87660E",
"_  c #92670F",
"`  c #99680D",
"'  c #957111",
"]  c #A87E0E",
"[  c #B86214",
"{  c #BA7B12",
"}  c #EF4602",
"|  c #F24600",
" . c #F04D00",
".. c #E45705",
"X. c #F25C00",
"o. c #D96507",
"O. c #C66F12",
"+. c #F16F00",
"@. c #E77005",
"#. c #F37600",
"$. c #F17E01",
"%. c #848113",
"&. c #8A8D1B",
"*. c #B3830E",
"=. c #9DA116",
"-. c #AAAE0C",
";. c #B6BA0D",
":. c #BBBF0B",
">. c #BEA912",
",. c #AEB313",
"<. c #B4B912",
"1. c #DF8A06",
"2. c #E68905",
"3. c #F38400",
"4. c #E59104",
"5. c #F39500",
"6. c #F49C01",
"7. c #DFBE05",
"8. c #CDA613",
"9. c #E0AA06",
"0. c #E9AD03",
"q. c #F3A701",
"w. c #F1AD01",
"e. c #E3B504",
"r. c #EEB703",
"t. c #E0B804",
"y. c #F5B300",
"u. c #F8B400",
"i. c #DFC707",
"p. c #DFCA04",
"a. c #CCD109",
"s. c #D3D706",
"d. c #DAD306",
"f. c #DBD40A",
"g. c #E2C605",
"h. c #EDC604",
"j. c #E0CE06",
"k. c #F7C700",
"l. c #F3CB02",
"z. c #EADD03",
"x. c #F7D700",
"c. c #DDE103",
"v. c #E7E603",
"b. c #E9EC02",
"n. c #F3E202",
"m. c #F8E500",
"M. c #F3E800",
"N. c #F8E800",
"B. c #EFF101",
"V. c #F6F001",
"C. c None",
/* pixels */
"C.C.C.C.C.C.C.C.C.C.C.C.C.C.C.C.C.C.C.C.C.C.C.C.C.C.C.C.C.C.C.C.",
"C.C.C.C.C.C.C.C.C.C.C.C.C.C.C.C.C.C.C.C.C.C.C.C.C.C.C.C.C.C.C.C.",
"C.C.C.C.C.C.C.C.C.C.C.C.C.C.C.C.C.C.C.C.C.C.C.C.C.C.C.C.C.C.C.C.",
"C.C.C.C.C.C.C.C.C.C.C.C.C.C.C.C.C.C.C.C.C.C.C.C.C.C.C.C.C.C.C.C.",
"C.C.C.C.C.C.C.C.C.C.C.C.C.C.C.C.C.C.C.C.C.C.C.C.C.C.C.C.C.C.C.C.",
"C.C.C.C.C.C.C.C.C.C.C.C.C.C.C.C.C.C.C.C.C.C.C.C.C.C.C.C.C.C.C.C.",
"C.C.C.C.C.C.C.C.C.C.C.C.C.C.C.C.C.C.C.C.C.C.C.C.C.C.C.C.C.C.C.C.",
"C.C.C.C.C.C.C.C.C.-.C.C.C.C.C.C.C.=.a C.,.s.c.&.C.C.C.<.C.C.C.C.",
"C.C.C.C.C.C.C.:.c.s., C.C.C.C.<.a.p : -.b.B.B.y C.C.f.V.%.C.C.C.",
"C.C.C.C.C.C.C.d.M.d., C.C.C.s.v.p . s f.M.m.i.< C.8.l.h.w C.C.C.",
"C.C.C.C.C.C.C.j.m.j.> C.>.z.n.i . C.C.*.u.y._ X C.0.u.*.# C.C.C.",
"C.C.C.C.C.C.C.g.x.t.1 ] r.h.i . C.C.C.4.5.2.q C.{ 6.6.t C.C.C.C.",
"C.C.C.C.C.C.C.t.k.e.' 0.y.) . C.C.C.O.3.3./ o C.[ $.$.r 9 j C.C.",
"C.C.C.C.C.C.C.9.y.w.q.q.` # C.C.C.C.@.#.o.= C.C.C...| ^ E 6 X C.",
"C.C.C.C.C.C.C.1.3.+.X.( $ C.C.C.C.~  .} e   C.C.b E N V 7 . C.C.",
"C.C.C.C.C.C.C.! W Y C % C.C.C.C.M Q Y A @ C.C.C.J k @ %   C.C.C.",
"C.C.C.C.C.C.L I I U 3   C.C.C.v U I Y 0   C.C.n F 2 C.C.C.C.C.C.",
"C.C.C.C.C.L I Y Y H & C.C.C.C.P I Y S % C.C.C.K f X C.C.C.C.C.C.",
"C.C.C.C.L I Y Y Y D & C.C.v P I Y Y f X C.C.N F - C.C.C.C.C.C.C.",
"C.C.C.x I I A K I D & C.m P C c Y T 0 C.C.x P 0   C.C.C.C.C.C.C.",
"C.C.n P Y l 2 G I P d x I C & g Y T d C.C P f o C.C.C.C.C.C.C.C.",
"C.C.K Y l @ @ J Y Y I I C &   v Y Y P F I x @ C.C.C.C.C.C.C.C.C.",
"C.k Y c % C.C.M Y Y Y N &   C.C.U Y Y T J *   C.C.C.C.C.C.C.C.C.",
"C.C.F h X C.C.C.z H z &   C.C.C.Z Y Y B *   C.C.C.C.C.C.C.C.C.C.",
"C.C.4 4 C.C.C.C.C.* +   C.C.C.C.C.8 5 %   C.C.C.C.C.C.C.C.C.C.C.",
"C.C.C.C.C.C.C.C.C.C.C.C.C.C.C.C.C.C.  C.C.C.C.C.C.C.C.C.C.C.C.C.",
"C.C.C.C.C.C.C.C.C.C.C.C.C.C.C.C.C.C.C.C.C.C.C.C.C.C.C.C.C.C.C.C.",
"C.C.C.C.C.C.C.C.C.C.C.C.C.C.C.C.C.C.C.C.C.C.C.C.C.C.C.C.C.C.C.C.",
"C.C.C.C.C.C.C.C.C.C.C.C.C.C.C.C.C.C.C.C.C.C.C.C.C.C.C.C.C.C.C.C.",
"C.C.C.C.C.C.C.C.C.C.C.C.C.C.C.C.C.C.C.C.C.C.C.C.C.C.C.C.C.C.C.C.",
"C.C.C.C.C.C.C.C.C.C.C.C.C.C.C.C.C.C.C.C.C.C.C.C.C.C.C.C.C.C.C.C.",
"C.C.C.C.C.C.C.C.C.C.C.C.C.C.C.C.C.C.C.C.C.C.C.C.C.C.C.C.C.C.C.C."
};
